<svg xmlns="http://www.w3.org/2000/svg" xml:space="preserve" width="570.779" height="211.276" viewBox="0 0 570.779 211.276"><path fill="#070809" d="M355.947 142.409h18.492c0 10.966 13.808 16.946 24.325 16.946 11.8 0 24.441-5.582 24.441-14.953 0-12.761-16.961-12.566-29.808-15.471-15.37-3.475-32.951-11.354-32.951-27.993 0-17.263 17.9-27.757 37.394-27.757 14.537 0 27.978 6.7 34.393 14.674l-13.359 11.262c-3.778-3.98-12.057-8.522-20.264-8.522-15.431 0-19.381 7.033-19.381 12.017 0 9.77 19.165 9.99 33.898 13.686 13.769 3.454 30.032 10.958 30.032 27.504 0 19.341-18.212 32.7-43.606 32.7-26.419.001-43.606-14.754-43.606-34.093m-48.274 4.781-22.055-26.834-.35.242c-6.52 4.512-18.228 11.752-18.228 20.901 0 4.579 1.877 8.849 5.575 12.691 12.112 11.66 25.134 2.812 35.058-7m-96.829-21.813c0-19.972-12.92-33.753-29.829-33.753-17.86 0-27.946 13.781-27.946 33.753 0 19.971 10.086 33.751 27.946 33.751 16.909 0 29.829-13.78 29.829-33.751m-75.95 0c0-29.958 17.908-51.127 45.417-51.127 14.621 0 25.394 7.59 29.818 13.98v-9.952l18.575-.175v97.202H210.13v-12.782c-4.424 6.391-15.197 13.979-29.818 13.979-27.51.001-45.418-21.168-45.418-51.125m-30.891 0c0-19.373-11.468-33.753-29.228-33.753-17.205 0-29.229 14.38-29.229 33.753 0 19.371 12.025 33.751 29.229 33.751 17.76 0 29.228-14.38 29.228-33.751m-58.201 37.146v12.782H27.628V35.894h18.174V88.23c5.657-7.189 16.027-13.98 30.169-13.98 27.34 0 46.007 20.371 46.007 51.127 0 30.755-18.667 51.125-46.007 51.125-14.52.001-24.324-7.189-30.169-13.979M280.711 82.73c0 6.047 4.825 10.49 8.364 14.877l.787-.58c4.746-3.496 11.133-7.492 11.133-14.078 0-6.026-4.533-9.166-10.215-9.166-5.184.001-10.069 3.427-10.069 8.947m51.839 37.87 12.072 12.38-14.931 14.6 22.736 27.688h-22.554l-11.738-14.414c-10.367 10.469-21.306 15.775-32.527 15.775-20.022 0-36.893-13.901-36.893-34.632 0-19.57 12.383-24.65 25.002-34.76-7.226-7.924-10.889-15.866-10.889-23.618 0-16.578 12.02-26.873 28.172-26.873 15.076 0 27.951 9.793 27.951 25.618 0 12.825-10.264 21.351-19.578 28.594l19.355 23.394zm123.855-86.817h18.173v53.971C481.286 79.365 488.953 73 503.709 73c26.604 0 42.318 15.378 42.318 40.542v61.087h-18.174v-57.692c0-16.776-9.354-26.761-27.485-26.761-16.969 0-25.789 11.159-25.789 27.335v57.118h-18.173V33.783z"/></svg>