<svg width="150" height="30" viewBox="0 0 150 30" fill="none" xmlns="http://www.w3.org/2000/svg">
<path d="M88.3333 22.2924H91.9004C91.9004 24.4419 94.564 25.614 96.5927 25.614C98.869 25.614 101.307 24.5199 101.307 22.683C101.307 20.1817 98.0356 20.2199 95.5574 19.6505C92.5925 18.9693 89.2011 17.4249 89.2011 14.1634C89.2011 10.7796 92.6541 8.72261 96.4145 8.72261C99.2187 8.72261 101.811 10.0359 103.049 11.5989L100.472 13.8065C99.7432 13.0263 98.1462 12.136 96.563 12.136C93.5864 12.136 92.8244 13.5146 92.8244 14.4915C92.8244 16.4066 96.5214 16.4497 99.3634 17.1742C102.019 17.8512 105.157 19.3221 105.157 22.5654C105.157 26.3565 101.643 28.9751 96.7449 28.9751C91.6487 28.9753 88.3333 26.0831 88.3333 22.2924ZM79.0211 23.2295L74.7667 17.9696L74.6992 18.0171C73.4415 18.9015 71.183 20.3206 71.183 22.114C71.183 23.0115 71.545 23.8485 72.2584 24.6016C74.5948 26.8872 77.1068 25.1528 79.0211 23.2295ZM60.3427 18.9538C60.3427 15.039 57.8504 12.3377 54.5886 12.3377C51.1434 12.3377 49.1978 15.039 49.1978 18.9538C49.1978 22.8684 51.1434 25.5695 54.5886 25.5695C57.8504 25.5695 60.3427 22.8684 60.3427 18.9538ZM45.6918 18.9538C45.6918 13.0816 49.1463 8.93215 54.4528 8.93215C57.2732 8.93215 59.3513 10.4199 60.2047 11.6724V9.7217L63.7879 9.6874V28.7405H60.2049V26.235C59.3515 27.4877 57.2734 28.9751 54.453 28.9751C49.1463 28.9753 45.6918 24.8259 45.6918 18.9538ZM39.7329 18.9538C39.7329 15.1564 37.5207 12.3377 34.0947 12.3377C30.7759 12.3377 28.4564 15.1564 28.4564 18.9538C28.4564 22.7508 30.7761 25.5695 34.0947 25.5695C37.5207 25.5695 39.7329 22.7508 39.7329 18.9538ZM28.5058 26.235V28.7405H25V1.41379H28.5058V11.6724C29.597 10.2633 31.5974 8.93215 34.3254 8.93215C39.5994 8.93215 43.2003 12.9252 43.2003 18.9538C43.2003 24.9823 39.5994 28.9751 34.3254 28.9751C31.5245 28.9753 29.6333 27.566 28.5058 26.235ZM73.8201 10.5944C73.8201 11.7797 74.7509 12.6506 75.4336 13.5105L75.5854 13.3968C76.5009 12.7115 77.7329 11.9282 77.7329 10.6373C77.7329 9.4561 76.8585 8.84061 75.7624 8.84061C74.7624 8.84081 73.8201 9.51236 73.8201 10.5944ZM83.8199 18.0175L86.1487 20.4441L83.2684 23.306L87.6543 28.7332H83.3035L81.0393 25.9079C79.0395 27.9599 76.9293 29 74.7648 29C70.9025 29 67.648 26.2752 67.648 22.2116C67.648 18.3756 70.0367 17.3798 72.471 15.3981C71.0771 13.8449 70.3705 12.2881 70.3705 10.7686C70.3705 7.51908 72.6891 5.5011 75.8049 5.5011C78.7131 5.5011 81.1967 7.42068 81.1967 10.5226C81.1967 13.0365 79.2167 14.7077 77.42 16.1275L81.1537 20.7131L83.8199 18.0175ZM107.712 1H111.217V11.5791C112.511 9.93477 113.99 8.68713 116.837 8.68713C121.969 8.68713 125 11.7015 125 16.634V28.608H121.494V17.2995C121.494 14.0111 119.69 12.0539 116.192 12.0539C112.919 12.0539 111.218 14.2412 111.218 17.412V28.608H107.712V1H107.712Z" fill="#070809"/>
</svg>
